<svg width="431" height="190" viewBox="0 0 431 190" fill="none" xmlns="http://www.w3.org/2000/svg">
<path d="M275.724 145.353C275.532 145.95 275.237 146.578 275.022 147.097C274.787 147.591 274.76 148.041 274.678 147.499C274.626 147.245 274.427 146.645 273.931 146.09C273.443 145.528 272.794 145.203 272.444 145.104C271.721 144.921 271.873 145.066 272.109 145.028C272.652 144.997 273.611 144.748 274.497 144.442L274.101 144.617C276.459 143.568 278.715 142.504 281.945 140.815C290.969 136.212 316.833 119.922 318.229 122.218C318.229 122.218 318.229 122.218 318.229 122.218C318.243 122.241 318.254 122.265 318.263 122.291C318.425 122.796 316.518 124.613 316.477 125.318C316.443 126.02 318.659 129.078 315.594 131.18C311.166 134.199 299.604 139.964 297.137 141.433C295.465 142.445 293.541 143.958 291.392 145.256C285.997 148.5 282.47 150.327 278.165 152.888C278.11 152.914 277.946 152.988 277.89 153.01C276.423 153.67 274.969 154.45 272.38 154.838C271.202 154.748 269.642 154.603 267.954 153.379C266.215 152.123 265.593 149.972 265.609 148.72C265.641 146.107 266.478 144.649 267.203 143.15C267.595 141.775 268.256 140.308 269.012 138.901C270.555 136.065 272.527 133.63 273.346 132.328C274.39 130.7 274.694 129.577 275.833 127.918C277.09 126.085 279.428 123.553 281.777 120.279C285.627 114.927 285.541 113.39 287.809 110.157C290.155 106.816 294.437 102.056 297.145 97.6618C297.439 97.0594 297.697 96.5043 297.991 95.8939C297.509 96.1418 297.053 96.3509 296.58 96.5821C297.976 94.4109 299.021 93.8147 300.301 91.8804C301.727 89.7046 302.092 88.0238 302.38 87.242C302.408 87.1756 302.406 87.1399 302.385 87.4466C302.385 87.503 302.384 87.5924 302.392 87.7277C302.396 87.7954 302.403 87.8746 302.414 87.967C302.427 88.0576 302.441 88.1636 302.481 88.3462C302.557 88.6858 302.707 89.1508 303.033 89.6575C303.398 90.2498 304.09 90.8811 304.783 91.1908C305.425 91.4874 305.977 91.5559 306.375 91.5614C306.769 91.5607 306.921 91.5199 307.085 91.4833C307.395 91.4006 307.397 91.3579 307.399 91.3416C307.277 91.2992 306.592 91.6238 306.04 92.0297C303.991 93.5667 304.753 93.7475 303.688 94.7396C303.258 95.0138 294.89 103.024 294.391 103.526C290.574 107.021 290.096 106.609 286.259 109.56C286.075 109.69 285.889 109.817 285.688 109.943C284.024 110.918 282.039 112.078 278.72 111.711C277.086 111.511 275.233 110.526 274.146 109.223C273.038 107.94 272.549 106.62 272.257 105.501C271.329 101.088 272.17 98.1746 272.807 95.2163C274.187 89.5471 275.727 84.0626 277.479 78.9226C279.005 74.4369 280.904 69.8765 282.94 65.6172C281.746 73.1475 289.842 58.9456 284.504 63.1921C287.101 58.6348 288.049 54.9438 290.449 50.6862C290.744 50.1635 291.054 49.6387 291.319 49.2057C291.465 48.9611 291.582 48.7751 291.7 48.5786C291.752 48.4956 291.803 48.4126 291.833 48.3714C291.861 48.3431 291.874 48.3041 291.798 48.595C291.822 48.5487 291.835 48.5152 291.809 48.6806C291.799 48.7895 291.762 48.857 291.751 49.4299C291.792 49.7207 291.625 50.1351 292.257 51.5558C292.625 52.3898 293.792 53.649 295.2 54.0213C295.883 54.2245 296.53 54.2476 297.038 54.1965C297.5 54.1456 297.697 54.0878 297.954 54.0136C298.946 53.6741 299.062 53.4945 299.29 53.355C299.501 53.1993 299.552 53.1461 299.626 53.0799C299.765 52.9491 299.785 52.9165 299.815 52.88C299.855 52.8229 299.826 52.8404 299.793 52.8678C299.633 53.0088 299.343 53.3499 299.068 53.6956C298.504 54.4047 297.855 55.3176 297.15 56.4136C295.645 58.7581 294.26 61.2872 292.923 63.6463C290.642 67.7142 288.689 71.3075 286.738 71.8925C282.631 80.1807 278.205 86.9937 278.35 90.8704C277.334 93.0551 273.418 97.9775 271.994 100.29C270.997 101.913 265.33 111.831 261.394 117.797C260.088 119.794 259.065 121.377 258.63 122.067C256.925 124.776 253.937 129.539 252.609 131.929C250.932 134.898 251.386 138.121 245.724 141.825C244.524 143.498 243.43 144.873 242.248 146.078C241.635 146.695 241.038 147.246 240.23 147.812C239.404 148.332 238.498 149.049 236.5 149.117C232.233 148.97 229.99 145.73 228.674 142.797C228.129 141.517 228.422 141.23 228.152 140.519C227.598 139.037 226.651 136.543 226.2 133.886C225.47 129.507 226.205 127.015 225.08 127.557C224.724 124.687 224.528 121.817 224.447 118.952C224.703 117.95 224.971 116.977 225.254 115.99C225.116 114.47 225.009 112.942 224.932 111.389C226.297 113.321 226.724 102.698 225.342 105.966C226.066 102.503 226.918 99.0845 227.88 95.7066C228.625 92.7738 230.977 89.7937 234.715 89.2807C234.445 89.842 235.665 89.6325 237.47 90.2593C239.342 90.8495 241.078 92.8441 241.766 94.6805C243.204 98.4012 243.004 101.689 243.664 101.151C243.58 101.874 243.463 102.59 243.331 103.268C241.598 109.123 239.877 113.91 236.42 119.784C235.662 121.043 235.051 121.988 234.54 122.744C232.765 125.314 232.533 125.134 231.115 126.117C230.298 127.456 229.419 128.797 228.514 130.087C224.87 137.977 223.746 134.938 213.194 144.763C210.553 145.25 207.043 147.988 201.169 147.459C199.908 147.237 199.075 146.063 198.853 145.278C198.729 144.912 198.655 144.543 198.61 144.166C198.572 143.848 198.555 143.556 198.55 143.239C198.542 142.01 198.69 140.957 198.859 139.916C199.2 137.883 199.704 135.923 200.15 134.305C200.387 133.464 200.124 133.349 200.43 132.257C201.163 129.525 204.31 123.187 203.388 123.044C204.625 120.914 205.896 118.814 207.192 116.741C207.908 114.872 208.645 113.013 209.401 111.169C209.141 111.047 208.88 110.925 208.62 110.804C211.318 107.645 214 101.958 215.961 99.3359C216.368 98.8059 216.696 98.9285 218.035 97.2599C218.432 96.8345 218.522 96.5015 219.725 95.5726C219.948 95.4274 220.221 95.2566 220.696 95.1254C220.837 95.092 220.87 95.0728 221.193 95.0382C221.462 95.0145 221.783 95.0266 222.12 95.1114C222.808 95.2675 223.454 95.7878 223.752 96.2575C223.907 96.4819 224.024 96.7492 224.069 96.8744C224.104 96.9696 224.132 97.0594 224.154 97.1441C224.199 97.3136 224.225 97.4628 224.241 97.5984C224.273 97.8693 224.271 98.0887 224.261 98.2945C224.246 98.5391 224.236 98.5911 224.222 98.7091C224.208 98.8158 224.192 98.9218 224.173 99.0292C224.136 99.2437 224.09 99.4637 224.035 99.6977C223.116 102.544 221.947 103.992 220.996 105.456C220.783 106.604 220.58 107.699 220.324 108.85C217.73 113.009 215.769 113.621 213.986 115.81C213.684 116.259 207.935 123.467 207.585 123.836C205.007 127.015 206.772 126.986 198.196 135.37C196.645 136.829 195.136 137.765 193.658 139.044C191.291 141.449 182.748 148.062 181.429 148.825C179.869 149.075 177.663 149.814 174.241 149.255C170.64 148.775 167.464 145.346 166.52 142.733C166.234 142.075 166.107 141.456 166.051 140.906C166.001 140.37 166.012 140.035 166.037 139.644C166.103 138.831 166.204 138.403 166.334 137.862C166.578 136.9 166.877 136.11 167.131 135.482C167.681 134.142 168.18 133.191 168.534 132.587C169.071 131.696 169.663 131.723 171.22 129.138C172.483 127.02 175.235 121.494 176.829 118.952C178.521 116.25 179.495 115.513 180.226 114.302C180.915 113.151 181.178 111.897 182.022 110.315C183.294 107.921 184.553 105.681 185.374 103.671C185.781 102.72 186.025 101.652 186.026 101.416C186.036 101.368 186.044 101.4 186.115 101.512C186.178 101.615 186.335 101.79 186.481 101.875C186.782 102.042 186.776 101.931 186.5 101.935C186.453 101.933 186.403 101.934 186.348 101.938C182.265 102.735 178.393 108.714 175.471 112.715C174.532 113.671 173.523 114.479 172.626 115.564C168.597 120.441 164.609 125.85 160.66 131.427C158.685 134.215 156.721 137.053 154.762 139.894C153.773 141.327 152.802 142.737 151.788 144.183C151.305 144.87 150.785 145.607 150.235 146.356C150.094 146.547 149.959 146.728 149.829 146.899C149.692 147.079 149.506 147.322 149.353 147.512C149.27 147.614 149.206 147.693 149.106 147.812C148.987 147.954 148.867 148.092 148.732 148.236C148.664 148.308 148.592 148.382 148.511 148.461C148.466 148.503 148.262 148.712 147.943 148.945C147.586 149.149 147.206 149.624 145.637 149.735C145.028 149.76 144.094 149.57 143.37 149.061C142.632 148.562 142.192 147.876 141.979 147.368C141.571 146.323 141.666 145.833 141.672 145.465C142.458 139.302 144.482 135.014 146.135 130.421C149.186 122.654 157.702 104.017 153.375 108.252C153.533 107.407 154.388 105.029 155.497 102.052C158.078 95.0658 162.456 84.9205 163.463 82.3322C164.9 78.6141 165.613 75.4968 166.752 72.5789C169.758 64.944 172.186 59.4262 175.679 51.0184C176.234 49.7117 176.821 48.3414 177.451 46.8906C178.652 44.1129 179.64 40.9601 180.502 39.3582C181.55 37.417 183.117 35.632 184.744 33.1285C185.312 32.2725 185.926 31.3236 186.907 30.1354C187.148 29.8489 187.441 29.5132 187.822 29.1449C188.043 28.9349 188.211 28.7773 188.563 28.506C188.73 28.3797 188.913 28.2513 189.124 28.1219C189.357 27.9793 189.687 27.7996 190.072 27.6521C190.747 27.3708 192.705 26.8723 194.586 28.063C195.408 28.5891 195.878 29.182 196.216 29.7319C196.497 30.2046 196.629 30.5479 196.745 30.8989C196.864 31.2778 196.898 31.4569 196.944 31.6922C196.985 31.9127 197.014 32.133 197.032 32.3197C197.063 32.6371 197.075 32.9368 197.076 33.234C196.316 41.9316 192.755 47.9709 190.856 52.3611C190.352 53.3925 189.747 53.5825 188.888 55.0163C185.552 60.588 182.107 66.9094 184.033 66.5105C179.332 73.359 176.125 80.3063 172.103 86.8288C167.509 94.1809 160.774 104.627 152.766 113.995C145.86 121.86 138.898 128.805 134.305 133.554C128.008 139.906 128.748 140.393 118.099 148.371C115.711 150.108 113.258 151.779 110.232 153.745C103.042 158.357 95.8623 161.261 89.3376 164.679C86.1352 165.433 82.7277 165.892 79.1063 165.07C75.4697 164.31 72.1395 161.685 70.5449 158.885C68.3686 154.989 68.372 151.984 68.4441 149.075C68.0366 148.22 67.6607 147.409 67.3013 146.547C67.2202 145.34 67.1796 144.146 67.1699 142.931C67.4611 142.567 67.7551 142.203 68.0519 141.84C68.1985 133.471 68.8602 122.977 70.5362 116.213C72.186 108.995 76.825 94.9101 82.3448 83.6114C85.4327 77.1281 88.5134 71.4608 90.5583 68.029C93.5542 63.0467 93.2099 62.4943 96.0518 60.2941C96.6403 59.1743 97.3002 57.974 97.9227 56.8675C98.1436 56.0213 98.375 55.1735 98.6012 54.3477C102.845 48.0822 109.08 41.3538 115.005 36.7588C118.105 34.2634 122.138 31.7353 126.127 29.6008C133.156 26.7249 139.478 27.9024 144.758 33.7596C148.841 40.1635 148.164 45.8391 147.386 50.7042C147.114 52.1109 146.709 53.391 146.253 54.5502C144.876 58.0914 142.115 61.5196 140.153 64.1956C137.221 68.0384 137.244 69.6109 132.725 73.9326C131.482 75.0689 130.01 76.2943 128.233 77.5117C126.27 78.6834 124.929 80.1195 120.579 80.7661C119.483 80.7751 118.771 80.9347 116.834 80.2037C116.101 79.9259 114.696 78.9422 114.106 77.657C113.5 76.4602 113.481 75.2172 113.573 74.4663C114.119 71.5048 114.989 70.7607 115.831 69.3948C117.475 67.0851 119.149 65.2809 120.811 63.4985C124.133 59.983 127.274 56.9662 129.536 54.631C131.498 52.6173 132.182 51.4366 133.525 50.0516C139.178 44.2249 143.979 39.6436 148.972 33.7918C155.33 28.5889 155.677 29.8268 158.268 28.765C160.24 27.9977 165.595 24.6392 166.729 23.6255C167.129 23.4125 167.233 23.9873 167.288 24.5818C167.349 25.1692 167.379 25.7698 167.939 25.4091C161.691 35.3647 158.166 36.9881 151.846 42.3817C141.498 52.9889 129.466 63.3122 121.737 74.2764C121.638 74.3644 121.545 74.4472 121.456 74.5245C121.356 74.624 121.265 74.715 121.181 74.7955C121.014 74.9595 120.884 75.0656 120.771 75.1598C120.659 75.222 120.617 75.2364 120.502 74.9498C120.415 74.6968 119.993 74.1312 119.644 74.0438C119.644 74.0445 119.643 74.0451 119.643 74.0457C119.363 73.9062 119.366 73.9848 119.487 74.0041C119.596 74.0311 119.801 74.0462 120.065 74.0317C120.362 74.0438 121.203 73.6929 121.775 73.3219C122.393 72.9369 122.914 72.5138 123.409 72.0751C124.374 71.2076 125.138 70.345 126.042 69.4791C130.863 64.7089 137.458 57.2517 139.087 49.259C139.757 45.5448 139.315 40.8421 137.883 38.8156C136.963 37.0984 131.596 35.8981 129.974 36.8992C109.607 46.2298 98.4065 69.142 90.9717 84.0081C90.611 84.7654 90.157 85.7481 89.6303 86.923C85.7197 95.0411 80.4415 112.01 79.1571 115.949C78.7144 117.111 78.1327 117.307 77.8068 118.573C75.5588 129.831 73.8062 142.234 76.5293 152.183C76.7544 153.065 77.0558 153.859 77.3703 154.39C79.1406 157.873 84.2788 157.795 89.3812 155.861C94.4887 153.975 99.4558 150.905 104.16 147.603C113.62 140.885 122.333 132.941 130.652 124.862C136.084 119.554 141.434 114.007 146.337 108.37C163.824 85.9328 181.441 58.1417 188.447 33.234C188.452 33.1304 188.418 33.0673 188.48 33.3626C188.495 33.4241 188.535 33.5755 188.604 33.7454C188.682 33.9249 188.755 34.1154 189.028 34.4872C189.296 34.8335 189.645 35.2047 190.298 35.5403C190.913 35.8586 191.647 35.9552 192.098 35.9271C193.132 35.8422 193.362 35.613 193.591 35.5072C193.754 35.411 193.811 35.3586 193.826 35.3481C193.851 35.326 193.764 35.4067 193.662 35.5243C193.239 36.0047 192.653 36.8447 192.129 37.6653C191.06 39.3408 190.026 41.1859 189.033 43.0433C187.045 46.7747 185.185 50.6305 183.447 54.5113C176.356 70.9443 169.824 88.0412 163.805 104.945C163.282 106.439 162.76 107.912 162.232 109.383C158.392 120.805 151.69 136.265 149.764 146.065C149.77 145.793 149.835 145.389 149.564 144.507C149.383 143.687 148.102 141.987 146.443 141.716C146.075 141.634 145.66 141.616 145.441 141.625C145.254 141.63 145.083 141.648 144.929 141.671C144.619 141.719 144.373 141.79 144.171 141.861C143.77 142.006 143.535 142.146 143.362 142.255C143.027 142.473 142.916 142.592 142.851 142.651C142.819 142.682 142.801 142.702 142.791 142.713C142.749 142.766 142.869 142.635 142.926 142.568C145.721 138.958 147.693 137.313 150.997 131.389C151.222 131.456 151.447 131.523 151.672 131.59C154.826 126.509 156.573 123.079 160.557 117.628C163.837 112.996 173.378 101.202 178.519 98.087C181.146 96.4383 180.242 97.3396 183.163 96.0885C183.988 95.7989 185.085 95.4621 186.5 95.4317C187.046 95.424 187.625 95.4635 188.239 95.5999C188.945 95.7597 189.746 96.0602 190.518 96.6509C192.202 97.9229 192.713 99.9224 192.783 101.136C192.895 103.667 192.338 105.222 191.845 106.858C190.78 110.048 189.44 112.761 188.265 114.952C185.751 119.622 180.833 126.739 178.978 130.136C177.895 132.099 176.833 134.094 175.918 136.072C175.482 137.02 175.039 138.064 174.761 138.919C174.609 139.382 174.512 139.767 174.474 140.042C174.458 140.158 174.462 140.251 174.473 140.187C174.476 140.153 174.513 139.863 174.292 139.323C174.651 140.059 175.01 140.383 175.205 140.472C175.398 140.552 175.56 140.605 176.167 140.551C177.353 140.444 179.374 139.546 181.223 138.366C184.98 135.984 188.724 132.637 192.284 129.261C195.204 126.511 199.127 122.988 199.959 122.013C201.591 120.119 201.671 119.206 202.701 117.885C206.896 112.51 214.839 102.832 217.235 98.114C217.271 97.9743 217.291 97.8806 217.298 97.8521C217.31 97.8533 217.287 97.7502 217.302 98.2392C217.311 98.3607 217.326 98.5188 217.37 98.732C217.392 98.8386 217.422 98.9591 217.464 99.0956C217.486 99.1639 217.51 99.2361 217.539 99.3125C217.568 99.3924 217.661 99.6174 217.757 99.7949C218.104 100.538 219.227 101.643 220.511 101.892C221.128 102.034 221.684 102.013 222.105 101.943C222.358 101.901 222.553 101.847 222.727 101.79C223.407 101.549 223.646 101.333 223.802 101.221C223.962 101.09 223.938 101.102 223.967 101.075C223.997 101.042 223.957 101.079 223.89 101.156C223.842 101.21 223.78 101.286 223.708 101.378C223.636 101.469 223.554 101.578 223.466 101.697C223.397 101.792 223.324 101.894 223.248 102.002C219.032 108.403 215.181 116.146 211.678 123.689C209.943 127.483 208.281 131.367 206.893 135.205C206.197 137.143 205.577 139.047 205.148 140.855C205.038 141.322 204.947 141.771 204.884 142.151C204.811 142.588 204.77 142.945 204.757 143.24C204.736 143.531 204.792 143.749 204.738 143.495C204.712 143.401 204.613 143.03 204.241 142.573C203.904 142.119 203.091 141.595 202.471 141.487C202.947 141.69 205.69 141.015 207.712 139.884C209.863 138.761 211.976 137.275 213.961 135.621C217.935 132.301 221.438 128.298 224.425 124.036C225.523 122.469 226.641 120.729 227.73 118.837C230.49 114.005 233.351 108.46 234.78 102.81C235.525 100.183 235.428 96.8808 235.013 96.5388C234.969 96.4803 235.136 96.6947 235.439 96.7779C235.739 96.8683 235.975 96.7964 236.006 96.7737C236.07 96.7146 235.747 96.9255 235.645 97.4084C234.202 103.743 233.287 109.662 232.769 114.399C232.427 117.747 231.913 116.818 231.792 119.646C231.695 122.788 232.141 124.432 232.226 125.89C232.391 128.441 232.711 131.813 233.56 135.249C233.983 136.943 234.564 138.691 235.308 140.038C235.674 140.709 236.097 141.259 236.394 141.514C236.539 141.641 236.639 141.688 236.646 141.684C236.657 141.681 236.565 141.646 236.5 141.645C235.721 141.678 235.719 141.823 235.808 141.739C235.919 141.671 236.15 141.498 236.399 141.275C236.907 140.823 237.482 140.205 238.038 139.554C239.166 138.231 240.232 136.793 241.238 135.392C243.244 132.587 244.982 129.967 246.337 128.027C247.404 126.495 248.509 125.581 249.102 124.629C249.403 124.147 249.822 122.891 250.736 121.356C252.276 118.767 253.744 116.312 255.186 113.943C261.072 104.113 265.745 95.2827 271.692 84.2351C276.03 76.196 280.37 67.6799 285.548 59.0916C286.838 56.9864 288.126 54.8989 289.459 52.7934C290.129 51.7364 290.802 50.6857 291.522 49.6098C291.882 49.0743 292.247 48.5358 292.687 47.9414C292.928 47.6278 293.085 47.3811 293.615 46.8244C293.68 46.759 293.782 46.6579 293.914 46.5431C294.026 46.449 294.244 46.2539 294.648 46.026C294.915 45.8871 295.326 45.6494 296.139 45.5467C297.245 45.2743 299.381 46.2625 299.893 47.3979C300.223 47.9715 300.266 48.2114 300.343 48.4886C300.407 48.7479 300.434 48.9677 300.447 49.1261C300.467 49.3925 300.461 49.5842 300.451 49.7431C300.409 50.2649 300.353 50.4308 300.316 50.6074C300.277 50.7735 300.244 50.8919 300.215 50.9952C291.806 67.4222 285.622 81.7989 281.222 97.5184C281.074 98.0403 280.945 98.5405 280.832 99.034C280.061 101.87 280.404 104.241 280.179 103.958C280.084 103.938 279.918 103.919 279.868 103.965C279.813 104.008 279.866 104.072 279.96 104.104C280.158 104.174 280.445 104.142 280.565 104.094C280.894 103.967 281.207 103.738 281.51 103.446C282.097 102.826 283.156 101.5 285.21 99.4986C287.95 96.8327 291.003 93.8871 294.333 90.9172C296 89.435 297.737 87.9316 299.63 86.4719C300.592 85.739 301.573 85.0069 302.834 84.2744C303.524 83.9188 304.045 83.4953 305.696 83.1669C305.92 83.1322 306.158 83.1078 306.434 83.1042C306.781 83.1002 307.177 83.1307 307.612 83.2383C308.412 83.3869 309.705 84.1819 310.245 85.1384C310.737 85.9066 310.894 86.7824 310.925 87.2049C310.964 87.6532 310.945 88.0404 310.905 88.3994C310.525 90.6051 310 91.2225 309.496 92.2861C309.001 93.2166 308.489 94.0671 307.973 94.8906C306.932 96.5455 305.917 98.0266 304.885 99.5103C302.843 102.436 300.858 105.164 299.088 107.666C295.22 113.128 290.298 120.841 286.6 126.163C283.581 130.362 276.44 140.259 276.167 142.071C276.137 142.172 276.115 142.268 276.099 142.358C275.859 143.436 276.106 144.18 275.724 145.353ZM294.205 60.1167C294.012 59.4326 292.767 61.3488 291.924 63.0291C291.13 64.6203 290.72 66.0151 291.845 64.6632C292.008 64.4671 292.299 63.9932 292.609 63.4526C293.36 62.1479 294.28 60.3493 294.205 60.1167ZM157.236 133.361C157.531 133.456 157.826 133.552 158.12 133.647C158.739 132.527 159.364 131.406 159.995 130.287C159.434 130.779 158.885 131.257 158.33 131.746C157.959 132.291 157.594 132.83 157.236 133.361Z" fill="black"/>
<path d="M34.4987 156.53C34.7211 156.412 35.1385 156.723 35.4326 156.683C36.6006 156.53 37.1419 156.686 38.2234 156.597C39.9037 156.466 44.4303 154.78 45.1711 157.369C45.1711 157.37 45.1711 157.37 45.1711 157.37C45.1779 157.395 45.1843 157.421 45.1903 157.448C45.3047 157.95 45.0307 158.604 45.1168 159.183C45.2032 159.763 46.2028 163.39 45.6572 163.751C44.8796 164.243 42.5457 163.83 42.1155 163.975C41.8205 164.076 41.498 164.505 41.1016 164.66C39.8394 165.156 39.0958 165.066 38.1065 166.228C37.5457 165.847 36.9473 165.472 36.3751 165.088C35.8014 165.437 34.7441 164.983 34.365 165.088C34.0599 165.175 33.9488 165.589 33.6341 165.663C33.295 165.746 32.6213 165.44 31.9848 165.607C30.9303 165.878 30.845 166.908 30.2153 167.126C29.5212 167.358 28.4002 166.946 27.5163 167.39C27.4149 167.512 27.3138 167.633 27.2129 167.754C27.3163 167.997 27.4212 168.239 27.5275 168.481C27.0864 168.642 26.834 168.147 26.4004 168.173C25.8881 168.202 25.6999 168.703 25.3276 168.723C25.0347 168.738 24.63 168.366 24.2755 168.403C23.7241 168.455 23.8561 169.015 23.5583 169.127C23.4745 169.187 21.1666 169.462 21.0032 169.435C19.9613 169.384 19.9633 168.605 19.1025 168.419C17.9221 168.136 16.6262 168.011 14.9538 167.363C14.1003 167.011 13.1179 166.508 12.1412 165.478C11.1639 164.479 10.3573 162.773 10.2805 161.186C10.1921 159.88 10.492 158.706 10.9069 157.796L10.6426 161.474C10.4012 160.555 10.4237 160.081 10.4235 159.658C10.4336 159.334 10.4556 159.157 10.484 158.937C10.5461 158.483 10.6126 158.239 10.6899 157.958C12.416 159.717 14.4532 156.867 11.2111 157.429C11.8307 156.539 11.1674 155.725 11.5074 154.932C11.7279 154.429 12.2441 154.145 12.4258 153.423C12.7568 152.099 11.9926 150.358 14.2174 150.614C14.2846 148.999 15.4458 147.953 13.7477 146.851C13.7531 146.43 15.1696 145.791 15.4528 145.421C15.7202 145.055 17.2219 142.127 17.4145 141.652C17.6077 141.162 17.9361 140.282 17.9137 139.815C17.8901 139.224 16.1085 138.186 18.665 138.013C18.8569 136.868 19.0647 136.476 19.6746 135.566C19.7858 135.4 20.1239 135.495 20.1619 135.388C20.2395 135.168 20.1278 134.705 20.239 134.298C20.4213 133.63 21.2469 133.515 20.1603 133.206C20.135 132.716 20.1112 132.224 20.089 131.731C20.3482 131.654 20.6073 131.577 20.8657 131.503C20.7254 131.195 20.5856 130.887 20.4463 130.577C21.8795 131.405 21.5646 129.471 20.4952 129.668C21.1182 128.952 21.7392 128.251 22.3658 127.543C24.0566 128.31 23.2487 125.815 22.2477 125.615C22.2851 125.521 22.3225 125.427 22.36 125.333C23.1358 124.686 23.053 123.781 23.7537 122.9C24.4548 122.02 24.5876 122.179 25.5001 122.19C25.548 121.937 25.5961 121.684 25.6444 121.432C23.9689 119.334 27.6326 121.055 26.8328 118.287C28.4696 118.17 28.4413 116.243 28.5074 114.969C28.5145 114.822 28.2536 114.707 28.2458 114.503C28.2263 114.014 29.0319 113.092 28.1741 112.76C28.5795 112.501 28.9845 112.246 29.3887 111.995C29.3701 111.629 29.3552 111.256 29.3389 110.889C29.077 110.771 28.8151 110.653 28.5531 110.536C29.7177 110.338 29.8092 109.249 30.2448 108.877C30.3314 108.805 30.6989 108.953 30.9318 108.715C31.2049 108.439 31.3955 107.773 31.7052 107.423C31.3871 107.074 31.0698 106.726 30.7532 106.376C30.8921 105.56 32.0544 105.83 32.3491 105.451C32.4034 105.373 33.0249 104.002 33.0551 103.9C33.1785 103.337 32.5795 103.027 32.9367 102.085C32.7021 102.482 32.5458 102.963 32.4965 103.395C32.4492 103.787 32.4784 104.13 32.5312 104.392C32.6276 104.849 32.7567 105.038 32.8137 105.104C32.9213 105.204 33.1083 104.861 33.0057 104.726C32.8563 104.481 31.2923 104.086 30.7375 104.564C30.9214 103.521 29.4056 102.76 29.1728 102.254C29.1045 102.099 29.4318 101.63 29.1381 101.248C28.9016 100.938 27.8445 100.702 27.4987 100.344C27.1388 99.9649 27.274 99.4659 27.1088 99.2973C26.9445 99.1325 26.5571 99.3236 26.3048 99.1272C25.9306 98.8314 25.6471 98.4108 25.3838 97.995C25.0993 97.5493 24.9375 97.2589 24.3479 96.6224C24.2399 96.4937 24.171 96.4311 23.9732 96.1326C23.8612 95.9499 23.7157 95.7177 23.5923 95.2662C23.5774 95.2094 23.5634 95.1488 23.5508 95.0842C23.5445 95.0518 23.5386 95.0185 23.5331 94.984C23.5243 94.9279 23.5159 94.8617 23.51 94.7954C23.486 94.5291 23.4934 94.1995 23.5838 93.8354C23.7426 93.0933 24.3699 92.3386 24.9216 92.0409C24.8286 92.0851 24.8571 92.0536 24.8762 92.0198C24.8912 91.9897 24.9153 91.9494 24.9452 91.9015C25.0142 91.7989 25.0426 91.7118 25.1021 91.5924C25.2003 91.3688 25.2917 91.1103 25.3548 90.8607C25.5021 90.3456 25.6185 89.8042 25.7918 89.3836C26.0089 89.3124 26.3427 89.3676 26.5202 89.2355C28.8351 87.5196 31.545 85.6896 33.9853 84.1004C35.1197 83.3621 38.7109 82.5197 36.407 81.0307C36.4888 80.3918 39.812 79.098 40.2982 78.7206C40.8048 78.3325 40.9103 77.6474 41.218 77.3771C41.2812 77.322 41.3807 77.2325 41.3146 77.2973C41.9394 76.7151 42.6961 76.2012 43.1814 75.8547C43.6606 75.4978 43.6003 75.5195 43.7853 74.9918C43.8723 74.704 43.6337 74.0656 43.7537 73.8879C43.9065 73.6645 44.5239 73.6763 44.755 73.3486C45.3041 72.5742 46.0512 70.808 46.5882 69.9688C46.6907 69.8106 47.136 69.9683 47.382 69.8106C48.3663 69.1506 48.8331 68.1131 47.4123 67.6133C48.7496 66.8469 48.6173 65.375 49.1071 64.2752C49.5355 63.3192 50.1586 62.1223 50.8117 60.8092C51.7778 58.8669 52.766 56.8155 53.0401 55.4213C53.3313 53.9501 52.7138 53.6849 54.1856 52.0426C54.5131 51.6766 54.8776 51.3375 55.2726 50.8945C56.1987 49.8587 57.8575 49.3253 56.9922 47.7381C58.0125 46.5872 58.3098 45.4055 59.9486 45.0074C59.7362 44.7514 59.5238 44.4956 59.3114 44.2399C59.3883 44.0739 59.464 43.9103 59.5416 43.7433C59.8271 43.8261 60.1126 43.909 60.3981 43.992C61.0662 42.8672 60.7664 40.8414 61.2881 39.8615C61.9921 38.5337 63.8806 35.6095 65.2195 33.8354C65.7806 32.9675 66.3588 32.4231 66.7868 32.0727C67.9794 31.17 67.6984 30.6794 69.0324 31.2742C69.203 31.0416 69.3898 30.8087 69.5575 30.5962C69.5453 30.2706 69.542 29.9423 69.5468 29.6121C70.9033 28.7892 72.6006 28.5396 73.7939 28.0906C75.9569 27.2517 79.006 25.6531 81.2668 25.6959C81.8312 25.7046 82.6154 26.1359 83.1334 26.0283C83.8874 25.8733 83.8975 24.8911 84.8647 24.7011C86.5373 24.368 89.7947 25.0238 91.3354 24.7548C91.7831 24.6745 91.9778 24.2907 92.2893 24.2156C93.6221 23.8951 94.7267 23.8097 95.9813 23.1386C97.4659 23.9321 97.4349 25.1343 97.9589 26.2968C98.3531 27.1741 99.4788 29.2026 99.6248 29.9922C99.7347 30.5446 99.4775 31.2785 99.6301 31.8847C98.1311 32.4744 97.439 31.998 96.0705 31.2582C93.6941 31.5219 91.3355 31.841 88.985 32.2273C88.724 31.9274 88.4602 31.6286 88.1936 31.3308C88.1935 31.33 88.1934 31.3293 88.1933 31.3286C87.2175 31.0896 86.9825 32.006 86.5286 32.2823C84.5124 33.5245 81.4412 34.2616 78.4412 35.0631C75.5075 35.7522 72.3209 37.1452 72.112 37.5795C71.929 37.8709 71.7435 38.1768 71.5814 38.4504C70.9972 39.4312 69.6646 42.9254 68.8219 43.3684C68.6027 43.4816 68.1184 43.2923 67.9981 43.4743C67.3755 45.3317 66.7605 47.1913 66.1518 49.0508C63.6213 52.2235 62.3537 56.1983 60.6829 59.8371C59.959 61.4144 59.2397 62.9989 58.5371 64.5683C55.2726 70.7973 54.0895 77.9386 47.2362 83.5104C45.1607 85.3237 43.773 86.3446 42.0439 87.6907C40.3907 88.9594 38.5521 90.8834 36.7899 91.9327C36.0567 92.3696 35.2719 91.9276 34.7638 93.1009C34.6181 92.9309 34.4723 92.7609 34.3265 92.5909C33.7167 93.4019 33.5428 94.1778 32.7004 94.888C31.9991 95.4797 30.0783 96.9841 29.3049 97.4375C29.1048 97.5567 28.9746 97.5076 28.8399 97.4688C28.7747 97.4477 28.7122 97.4265 28.6408 97.4278C28.5766 97.4223 28.4863 97.4621 28.2164 97.626C28.2138 97.6276 28.2111 97.6292 28.2083 97.6308C28.7871 97.311 29.4882 96.5809 29.7684 95.7431C30.0716 94.9437 29.9625 94.0681 29.9098 93.8526C29.7943 93.2933 29.6309 93.0003 29.5196 92.7951C29.3913 92.5747 29.3558 92.5334 29.3113 92.4666C29.2695 92.4065 29.2381 92.3637 29.2155 92.3314C29.1355 92.2175 29.174 92.231 29.2238 92.2376C29.3336 92.2643 29.5569 92.3582 29.7754 92.4415C30.236 92.6278 30.7763 92.8614 31.1335 93.135C31.7772 93.6275 32.6262 94.8754 33.1907 95.2245C34.2088 95.8548 35.3437 96.4384 36.5022 97.1837C37.6858 98.0379 38.7197 98.4455 40.2058 100.905C40.3006 101.084 40.3933 101.286 40.4796 101.517C40.5748 101.769 40.68 102.1 40.7507 102.471C40.9021 103.213 41.0105 104.692 40.1476 106.111C39.8243 106.355 39.5052 106.561 39.4563 106.669C39.2947 107.034 39.7019 107.389 39.6345 107.66C39.3149 108.982 37.7931 110.64 37.1991 111.842C35.2263 115.809 33.5981 120.255 31.8589 124.36C30.7523 126.954 29.1763 131.375 27.9157 133.696C27.6431 134.195 27.1531 133.855 26.9907 134.303C26.8113 134.8 27.0819 135.199 27.0288 135.44C26.6567 137.117 25.8051 140.761 24.9155 142.165C24.746 142.428 24.2486 142.49 24.1922 142.663C24.1623 142.752 24.3871 143.052 24.3246 143.339C23.7825 145.851 23.0375 147.573 22.1979 149.932C21.6025 151.615 21.1014 153.411 20.6571 155.245C20.4324 156.174 20.2342 157.064 20.0518 157.978C19.9713 158.388 19.8818 158.868 19.8292 159.226C19.7972 159.438 19.781 159.577 19.7707 159.702C19.7662 159.758 19.7677 159.782 19.7701 159.749C19.7622 159.707 19.8156 159.565 19.6552 158.933C19.869 159.555 19.6966 160.984 19.4636 161.599C19.5102 161.498 19.5901 161.28 19.5846 160.938C19.5856 160.601 19.4486 160.167 19.2793 159.918C18.9089 159.399 18.8003 159.528 19.0055 159.639C19.3311 159.861 19.8153 160.86 19.9358 160.87C20.1919 160.894 20.4685 160.334 21.0172 160.238C22.8698 159.943 25.8115 160.391 27.8336 159.838C28.8266 159.573 30.1461 158.609 31.0892 158.28C31.8797 158.018 33.8248 157.96 34.1128 157.558C34.2864 157.318 34.258 156.661 34.4987 156.53ZM13.126 152.761C14.082 153.197 13.6951 151.382 12.9905 151.826C12.8297 151.931 12.875 152.655 13.126 152.761ZM30.6967 88.3283C30.5038 88.1022 30.3109 87.8761 30.118 87.65C30.0257 87.877 29.9351 88.1027 29.8465 88.3267C30.0474 88.3973 30.2491 88.4673 30.4514 88.5367C30.5327 88.4677 30.6145 88.3982 30.6967 88.3283Z" fill="black"/>
<path d="M359.171 41.6906C358.887 41.8343 358.389 41.5561 358.035 41.6225C356.546 41.8984 355.954 41.7691 354.586 41.9567C352.571 42.2243 346.903 44.2358 346.196 41.6311C346.196 41.631 346.196 41.6309 346.196 41.6309C346.19 41.6052 346.183 41.5792 346.178 41.5526C346.067 41.0492 346.423 40.3735 346.348 39.7909C346.273 39.2081 345.259 35.5852 345.915 35.1938C346.863 34.6554 349.584 34.946 350.119 34.7654C350.491 34.6395 350.87 34.1894 351.333 34.0087C352.829 33.4259 353.702 33.4644 354.882 32.2133C355.564 32.5482 356.239 32.8857 356.908 33.2254C357.597 32.8222 358.85 33.1825 359.28 33.0426C359.642 32.9252 359.767 32.4971 360.144 32.3885C360.569 32.2639 361.301 32.5192 362.077 32.2722C363.328 31.875 363.317 30.842 364.065 30.5384C364.824 30.2278 366.199 30.4794 367.123 29.9115C367.223 29.7757 367.331 29.6382 367.436 29.5013C367.29 29.2762 367.14 29.0519 366.996 28.8266C367.492 28.5975 367.827 29.0513 368.3 28.9581C368.854 28.8494 369.031 28.3125 369.415 28.2329C369.727 28.1688 370.226 28.4636 370.613 28.3576C371.18 28.205 370.95 27.6759 371.244 27.5073C371.361 27.4384 373.633 26.6649 373.761 26.6386C374.753 26.4241 375.009 27.1636 375.804 27.0847C378.053 26.8579 380.279 25.8532 382.434 25.349C383.402 25.1235 384.452 25.0582 385.533 25.1169C384.012 27.1885 387.699 28.5383 386.202 25.5067C386.843 25.703 387.382 25.6005 387.987 25.4915C388.673 25.4088 389.244 25.2035 390.651 25.6905C390.98 25.817 391.297 25.9575 391.787 26.2579C392.244 26.5585 392.717 26.8786 393.362 27.676C393.946 28.4025 394.481 29.5937 394.514 30.7868C394.545 31.9954 394.264 32.7147 393.943 33.3922L394.173 30.196C394.49 31.58 394.271 32.2116 394.17 32.7412C394.136 32.886 394.114 32.9568 394.095 33.0209C394.075 33.0876 394.054 33.1528 394.034 33.217C393.994 33.3454 393.953 33.47 393.912 33.595C392.998 36.0667 393.327 37.7404 391.11 37.263C390.549 39.1057 389.007 40.1541 390.367 41.6927C390.238 42.1519 388.576 42.687 388.184 43.0352C387.806 43.3916 385.314 46.5104 384.979 46.9969C384.627 47.5175 384.001 48.4808 383.878 49.0071C383.712 49.6814 385.177 51.1573 382.538 50.9356C381.982 52.1988 381.642 52.6201 380.738 53.5557C380.573 53.7267 380.261 53.5641 380.189 53.6795C380.041 53.9175 380.009 54.461 379.767 54.9083C379.366 55.6519 378.501 55.6427 379.504 56.1652C379.378 56.724 379.25 57.286 379.12 57.851C378.834 57.8988 378.547 57.947 378.26 57.9954C378.305 58.3717 378.356 58.7377 378.402 59.11C377.201 57.955 376.932 60.2001 378.077 60.1332C377.228 60.8545 376.385 61.5644 375.538 62.2792C374.046 61.1695 374.124 64.1305 375.089 64.4888C375.024 64.5901 374.958 64.6913 374.893 64.7926C373.915 65.4242 373.737 66.4642 372.774 67.376C371.809 68.2899 371.721 68.0918 370.791 67.9698C370.671 68.2524 370.551 68.5349 370.431 68.8174C371.564 71.4077 368.29 69.0121 368.359 72.2745C366.655 72.2265 366.165 74.4606 365.794 75.8933C365.751 76.0601 365.991 76.2131 365.949 76.4459C365.84 77.0193 364.802 77.9894 365.607 78.436C365.13 78.6984 364.659 78.9508 364.178 79.2181C364.113 79.6392 364.048 80.0588 363.985 80.4767C364.23 80.6268 364.475 80.7769 364.719 80.927C363.476 81.0727 363.152 82.3062 362.629 82.7052C362.525 82.7829 362.175 82.5968 361.886 82.8581C361.543 83.1669 361.229 83.8984 360.84 84.292C361.105 84.6973 361.371 85.1017 361.638 85.5052C361.35 86.4254 360.196 86.0915 359.838 86.5027C359.768 86.5858 358.895 88.1703 358.87 88.2591C358.637 89.0183 359.572 89.3738 358.219 91.1997C357.985 91.5137 357.513 91.6354 357.31 91.9461C356.948 92.4981 356.622 94.5583 357.157 95.0616C355.996 95.2602 355.248 97.2699 354.731 97.6571C354.568 97.7822 354.047 97.5425 353.662 97.9759C353.539 98.1139 353.438 98.3896 353.348 98.6899C353.619 98.2375 353.881 97.421 353.755 96.566C353.699 96.1462 353.559 95.7505 353.391 95.4346C353.219 95.119 353.123 94.9997 352.989 94.8331C352.478 94.2388 352.085 94.078 351.953 93.9935C351.705 93.8543 351.651 93.8283 351.662 93.8056C351.676 93.7651 351.852 93.7689 351.952 93.8035C352.406 93.9403 352.56 94.4256 352.831 94.4776C353.054 94.5225 353.296 94.1478 353.647 94.163C354.697 94.214 355.687 94.8403 356.582 94.8496C357.847 94.8633 358.979 93.6976 360.029 93.1653C360.301 93.2334 360.565 93.4728 360.844 93.4678C364.305 93.4146 368.25 93.4579 371.776 93.546C373.398 93.5834 377.56 94.9649 376.363 92.4197C376.496 92.3025 376.876 92.2665 377.358 92.283C377.631 92.2905 377.852 92.3129 378.206 92.3439C378.367 92.36 378.504 92.3786 378.733 92.4016C378.846 92.4135 378.909 92.4251 379.078 92.4423C379.181 92.4519 379.289 92.4625 379.447 92.4824C379.526 92.4927 379.618 92.5051 379.746 92.5269C379.778 92.5324 379.812 92.5386 379.85 92.5458C380.014 92.5795 380.251 92.6045 380.783 92.8093C381.056 92.9255 381.427 93.07 381.996 93.5328C382.527 93.9656 383.449 94.9924 383.587 96.5822C383.726 98.1737 382.973 99.3784 382.504 99.8992C382.003 100.459 381.649 100.662 381.392 100.82C381.579 100.692 381.495 100.724 381.472 100.726C381.437 100.734 381.369 100.765 381.314 100.788C381.214 100.826 381.055 100.908 380.946 100.954C380.689 101.075 380.449 101.188 380.206 101.31C379.758 101.527 379.382 101.724 379.223 101.84C378.599 102.293 378.383 103.043 377.904 103.418C376.444 104.562 375.21 105.091 373.671 106.797C373.276 107.237 373.119 108.057 372.844 108.263C372.511 108.51 371.829 108.366 371.384 108.67C370.321 109.401 368.554 111.01 367.531 111.703C367.342 111.83 367.002 111.502 366.652 111.593C365.313 111.923 364.273 112.83 365.41 113.832C365.127 113.885 364.893 113.954 364.663 114.064C364.48 114.132 364.193 114.343 364.268 114.266C363.289 115.18 362.197 116.389 362.285 116.419C361.591 117.099 358.254 122.877 357.71 125.392C357.298 127.11 357.919 127.361 356.285 129.38C355.926 129.821 355.532 130.235 355.084 130.806C355.073 130.819 355.063 130.832 355.053 130.845C354.014 132.127 352.287 132.917 353.067 134.67C351.918 136.117 351.523 137.519 349.784 138.141C349.987 138.418 350.19 138.696 350.392 138.974C350.299 139.175 350.207 139.376 350.115 139.576C349.823 139.506 349.532 139.436 349.24 139.366C348.46 140.741 348.622 143.07 348.006 144.259C346.977 146.255 343.912 151.173 342.565 152.878C341.853 153.782 342.378 154.125 340.937 154.101C340.899 154.364 340.858 154.631 340.817 154.898C340.99 155.171 341.167 155.438 341.339 155.713C341.016 156.328 340.574 156.95 340.128 157.558C339.206 158.986 338.154 159.756 337.335 160.415C334.533 162.627 330.79 164.606 328.02 164.855C327.33 164.914 326.374 164.559 325.745 164.716C324.831 164.942 324.815 165.934 323.64 166.201C321.6 166.672 317.692 166.178 315.816 166.507C315.258 166.608 315.049 166.996 314.659 167.084C313.048 167.453 311.708 167.572 310.19 168.275C308.415 167.515 308.462 166.309 307.851 165.155C307.383 164.285 306.063 162.272 305.878 161.484C305.747 160.933 306.081 160.194 305.897 159.59C307.693 158.979 308.58 159.434 310.2 160.142C313.061 159.816 315.929 159.407 318.735 158.894C319.05 159.181 319.361 159.467 319.679 159.751C319.679 159.751 319.679 159.752 319.679 159.753C320.841 159.937 321.136 158.997 321.674 158.689C323.361 157.715 325.653 156.937 327.97 156.096C330.202 155.37 332.889 153.927 333.016 153.695C334.573 151.208 336.066 148.829 337.148 146.91C337.831 145.702 339.488 141.495 340.403 140.895C340.641 140.741 341.132 140.915 341.271 140.691C342.061 138.467 342.841 136.242 343.614 134.014C345.161 131.892 346.342 129.528 347.397 127.12C348.315 125.029 349.159 122.917 350.13 120.855C351.148 118.7 352.154 116.569 353.339 114.359C353.946 113.263 354.532 112.133 355.637 110.787C356.187 110.112 357.013 109.415 357.441 109.076C357.882 108.718 358.13 108.492 358.454 108.165C364.948 102.609 369.965 98.5264 377.025 93.3918C376.739 93.5831 376.275 93.7919 375.637 94.7298C374.923 95.5623 374.73 98.0556 375.628 99.1878C376.414 100.341 377.049 100.545 377.402 100.738C377.772 100.903 377.977 100.952 378.135 100.992C378.494 101.072 378.412 101.047 378.467 101.058C378.499 101.063 378.527 101.067 378.551 101.07C378.649 101.082 378.701 101.086 378.737 101.088C378.807 101.092 378.794 101.09 378.785 101.09C378.763 101.089 378.703 101.088 378.622 101.088C378.478 101.088 378.333 101.09 378.135 101.093C377.828 101.098 377.433 101.109 377.085 101.118C374.621 101.188 371.463 101.728 368.987 101.581C367.961 101.52 367.497 100.709 366.171 101.38C366.148 101.157 366.125 100.934 366.102 100.711C364.937 101.026 364.2 101.562 362.873 101.656C361.764 101.737 358.782 101.841 357.783 101.761C357.255 101.724 357.446 101.304 356.965 101.309C356.13 101.322 354.35 101.897 353.112 101.841C352.596 101.819 351.949 101.689 351.185 101.502C350.983 101.454 350.819 101.407 350.595 101.348C350.356 101.285 350.123 101.218 349.88 101.139C349.736 101.094 349.541 101.031 349.353 100.958C349.256 100.92 349.156 100.879 349.049 100.831C348.996 100.807 348.941 100.782 348.884 100.754C348.856 100.74 348.827 100.726 348.797 100.711C348.75 100.687 348.701 100.662 348.65 100.635C348.255 100.411 347.706 100.091 347.148 99.2976C346.867 98.9247 346.453 97.9901 346.456 97.1711C346.43 96.3263 346.693 95.5994 346.962 95.1245C347.005 95.0519 347.042 94.9826 347.071 94.9174C348.256 92.3014 349.224 89.2799 350.948 86.7953C351.415 86.1273 352.442 85.481 352.569 85.2445C352.801 84.8037 352.429 84.4021 352.548 84.0781C353.165 82.4109 355.117 80.4378 356.019 79.031C359.002 74.3731 361.897 69.3315 364.893 64.7428C366.785 61.846 369.756 56.9421 371.782 54.4469C372.216 53.9127 372.612 54.3683 372.918 53.8772C373.259 53.3317 373.111 52.833 373.241 52.564C374.158 50.6812 376.206 46.6311 377.575 45.1572C377.833 44.8827 378.351 44.903 378.47 44.7052C378.53 44.6071 378.402 44.2244 378.561 43.9044C379.942 41.1036 381.26 39.2714 382.868 36.7175C383.552 35.622 384.176 34.5414 384.769 33.4129C384.922 33.1226 385.06 32.8508 385.187 32.5939C385.339 32.2866 385.471 32.0079 385.58 31.7654C385.693 31.5147 385.819 31.2128 385.871 31.0592C385.908 30.9571 385.93 30.875 385.917 30.9009C385.91 30.9234 385.903 30.9113 385.865 31.1179C385.846 31.3188 385.741 31.6595 385.956 32.5124C385.754 31.9065 385.91 30.5197 386.142 29.9247C386.007 30.2499 385.827 30.6662 385.888 31.5132C385.952 32.3515 386.424 33.1606 386.838 33.5567C387.644 34.2905 387.863 34.2045 387.944 34.2662C388.068 34.3017 387.754 34.2581 387.465 34.2646C386.84 34.2641 385.998 34.3275 385.202 34.4069C383.537 34.574 381.83 34.807 380.134 34.9946C378.843 35.1386 377.799 34.4229 377.611 34.4657C377.194 34.5602 377.077 35.1919 376.284 35.4934C373.672 36.4835 369.929 36.6259 367.417 37.5026C366.179 37.9324 364.617 39.0761 363.404 39.5361C362.447 39.8986 360.025 40.1746 359.666 40.6081C359.445 40.8703 359.475 41.5322 359.171 41.6906ZM392.927 34.7027C392.051 34.1557 391.901 36.4104 392.755 35.9443C392.959 35.8256 393.129 34.9203 392.927 34.7027ZM365.559 95.1356C365.531 94.8396 365.502 94.5436 365.473 94.2476C365.226 94.3805 364.978 94.5133 364.731 94.6459C364.879 94.8191 365.027 94.9923 365.176 95.1654C365.304 95.1555 365.432 95.1456 365.559 95.1356Z" fill="black"/>
</svg>
