<svg width="256" height="256" viewBox="0 0 256 256" fill="none" xmlns="http://www.w3.org/2000/svg">
<g clip-path="url(#clip0_2667_19)">
<path d="M256 0H0V256H256V0Z" fill="#78716C"/>
<path d="M119.374 144.746L75.4331 62.4316H95.5146L121.362 114.524C121.76 115.452 122.224 116.413 122.754 117.407C123.284 118.401 123.748 119.429 124.146 120.489C124.411 120.887 124.61 121.251 124.742 121.583C124.875 121.914 125.007 122.212 125.14 122.477C125.803 123.803 126.399 125.095 126.929 126.354C127.459 127.614 127.923 128.773 128.321 129.834C129.381 127.581 130.541 125.161 131.8 122.577C133.06 119.992 134.352 117.308 135.678 114.524L161.923 62.4316H180.612L136.274 145.74V198.827H119.374V144.746Z" fill="white"/>
</g>
<defs>
<clipPath id="clip0_2667_19">
<rect width="256" height="256" fill="white"/>
</clipPath>
</defs>
</svg>
