<svg width="276" height="276" viewBox="0 0 276 276" fill="none" xmlns="http://www.w3.org/2000/svg">
<path d="M87.1579 58.9171C87.1579 70.3788 81.1757 80.8496 73.7205 89.7621C62.7361 102.893 56.0607 119.692 56.0607 138C56.0607 156.308 62.7363 173.106 73.7206 186.237C81.1759 195.149 87.1579 205.62 87.1579 217.081V248.526H49.9536V211.888C49.9536 199.871 43.8908 188.609 33.7093 181.714L27.4737 177.491V97.5041L33.7093 93.2812C43.8908 86.3861 49.9536 75.1242 49.9536 63.1072V27.4737L87.1579 27.4737V58.9171Z" fill="#211D1D" fill-opacity="0.1"/>
<path d="M188.842 58.9171C188.842 70.3788 194.824 80.8496 202.28 89.7621C213.264 102.893 219.939 119.692 219.939 138C219.939 156.308 213.264 173.106 202.279 186.237C194.824 195.149 188.842 205.62 188.842 217.081V248.526H226.046V211.888C226.046 199.871 232.109 188.609 242.291 181.714L248.526 177.491V97.5041L242.291 93.2812C232.109 86.3861 226.046 75.1242 226.046 63.1072V27.4737L188.842 27.4737V58.9171Z" fill="#211D1D" fill-opacity="0.1"/>
<path d="M87.1579 58.9171C87.1579 70.3788 81.1757 80.8496 73.7205 89.7621C62.7361 102.893 56.0607 119.692 56.0607 138C56.0607 156.308 62.7363 173.106 73.7206 186.237C81.1759 195.149 87.1579 205.62 87.1579 217.081V248.526H49.9536V211.888C49.9536 199.871 43.8908 188.609 33.7093 181.714L27.4737 177.491V97.5041L33.7093 93.2812C43.8908 86.3861 49.9536 75.1242 49.9536 63.1072V27.4737L87.1579 27.4737V58.9171Z" stroke="#211D1D" stroke-width="2.21053"/>
<path d="M188.842 58.9171C188.842 70.3788 194.824 80.8496 202.28 89.7621C213.264 102.893 219.939 119.692 219.939 138C219.939 156.308 213.264 173.106 202.279 186.237C194.824 195.149 188.842 205.62 188.842 217.081V248.526H226.046V211.888C226.046 199.871 232.109 188.609 242.291 181.714L248.526 177.491V97.5041L242.291 93.2812C232.109 86.3861 226.046 75.1242 226.046 63.1072V27.4737L188.842 27.4737V58.9171Z" stroke="#211D1D" stroke-width="2.21053"/>
<circle cx="87.1579" cy="27.4737" r="3.86842" fill="#211D1D" stroke="#211D1D" stroke-width="1.10526"/>
<circle cx="49.5789" cy="27.4737" r="3.86842" fill="#211D1D" stroke="#211D1D" stroke-width="1.10526"/>
<circle cx="27.4737" cy="98.2105" r="3.86842" fill="#211D1D" stroke="#211D1D" stroke-width="1.10526"/>
<circle cx="4.42105" cy="4.42105" r="3.86842" transform="matrix(1 0 0 -1 82.7368 252.947)" fill="#211D1D" stroke="#211D1D" stroke-width="1.10526"/>
<circle cx="4.42105" cy="4.42105" r="3.86842" transform="matrix(1 0 0 -1 45.1579 252.947)" fill="#211D1D" stroke="#211D1D" stroke-width="1.10526"/>
<circle cx="4.42105" cy="4.42105" r="3.86842" transform="matrix(1 0 0 -1 23.0526 182.211)" fill="#211D1D" stroke="#211D1D" stroke-width="1.10526"/>
<circle cx="4.42105" cy="4.42105" r="3.86842" transform="matrix(1 0 0 -1 51.7895 142.421)" fill="#211D1D" stroke="#211D1D" stroke-width="1.10526"/>
<circle cx="4.42105" cy="4.42105" r="3.86842" transform="matrix(-1 0 0 1 193.263 23.0526)" fill="#211D1D" stroke="#211D1D" stroke-width="1.10526"/>
<circle cx="4.42105" cy="4.42105" r="3.86842" transform="matrix(-1 0 0 1 230.842 23.0526)" fill="#211D1D" stroke="#211D1D" stroke-width="1.10526"/>
<circle cx="4.42105" cy="4.42105" r="3.86842" transform="matrix(-1 0 0 1 252.947 93.7895)" fill="#211D1D" stroke="#211D1D" stroke-width="1.10526"/>
<circle cx="188.842" cy="248.526" r="3.86842" transform="rotate(180 188.842 248.526)" fill="#211D1D" stroke="#211D1D" stroke-width="1.10526"/>
<circle cx="226.421" cy="248.526" r="3.86842" transform="rotate(180 226.421 248.526)" fill="#211D1D" stroke="#211D1D" stroke-width="1.10526"/>
<circle cx="248.526" cy="177.789" r="3.86842" transform="rotate(180 248.526 177.789)" fill="#211D1D" stroke="#211D1D" stroke-width="1.10526"/>
<circle cx="219.789" cy="138" r="3.86842" transform="rotate(180 219.789 138)" fill="#211D1D" stroke="#211D1D" stroke-width="1.10526"/>
</svg>
