<svg width="411" height="411" viewBox="0 0 411 411" fill="none" xmlns="http://www.w3.org/2000/svg">
<g clip-path="url(#clip0_321_63)">
<path opacity="0.2" d="M95.9473 93.7363H115.842V-292H118.053V93.7363H153.421V-292H155.632V93.7363H255.105V-292H257.316V93.7363H292.685V-292H294.896V93.7363H314.789V-292H317V92.085L555.735 -146.65L557.299 -145.087L318.476 93.7363H702.737V95.9473H317V314.789H702.737V317H318.799L557.84 556.041L556.276 557.604L317 318.328V702.737H314.789V317H294.896V702.737H292.685V317H257.316V702.737H255.105V317H155.632V702.737H153.421V317H118.053V702.737H115.842V317H95.9473V702.737H93.7363V318.476L-146.087 558.299L-147.65 556.735L92.085 317H-292V314.789H93.7363V95.9473H-292V93.7363H92.4072L-147.109 -145.78L-145.546 -147.344L93.7363 91.9375V-292H95.9473V93.7363ZM97.4229 314.789H115.842V296.369L97.4229 314.789ZM118.053 294.159V314.789H153.421L153.42 267.023C151.937 265.767 150.5 264.458 149.112 263.099L118.053 294.159ZM155.632 314.789H255.105V269.036C241.427 279.73 224.208 286.105 205.5 286.105C186.671 286.105 169.351 279.649 155.631 268.83L155.632 314.789ZM261.828 263.156C260.376 264.575 258.871 265.939 257.316 267.245V314.789H292.685V294.013L261.828 263.156ZM294.896 314.789H313.461L294.896 296.224V314.789ZM95.9473 313.138L115.842 293.243V117.17L95.9473 97.2754V313.138ZM294.896 117.316V293.097L314.789 312.99V97.4229L294.896 117.316ZM118.053 291.032L147.554 261.529C133.527 247.025 124.895 227.271 124.895 205.5C124.895 183.579 133.644 163.702 147.842 149.171L118.053 119.381V291.032ZM263.099 149.112C277.331 163.648 286.105 183.549 286.105 205.5C286.105 227.301 277.449 247.079 263.388 261.589L292.685 290.886V119.527L263.099 149.112ZM155.631 256.58V265.99C169.182 277.175 186.556 283.895 205.5 283.895C224.321 283.895 241.592 277.261 255.105 266.205V256.434L205.441 206.77L155.631 256.58ZM257.316 264.327C258.322 263.441 259.307 262.53 260.266 261.594L257.316 258.645V264.327ZM150.675 261.535C151.569 262.41 152.485 263.263 153.42 264.095V258.791L150.675 261.535ZM257.316 154.895V255.518L261.824 260.025C275.486 245.916 283.895 226.691 283.895 205.5C283.895 184.16 275.368 164.811 261.535 150.675L257.316 154.895ZM149.405 150.734C135.607 164.865 127.105 184.19 127.105 205.5C127.105 226.661 135.49 245.862 149.117 259.966L153.42 255.664V154.749L149.405 150.734ZM155.631 253.453L203.878 205.206L155.631 156.96V253.453ZM207.005 205.206L255.105 253.307V157.105L207.005 205.206ZM205.5 127.105C186.557 127.105 169.182 133.824 155.631 145.009V153.833L205.441 203.643L255.105 153.979V144.794C241.592 133.739 224.321 127.105 205.5 127.105ZM257.316 151.768L259.966 149.117C259.102 148.282 258.218 147.467 257.316 146.672V151.768ZM153.42 146.904C152.588 147.644 151.772 148.401 150.973 149.175L153.42 151.622V146.904ZM118.053 116.254L149.409 147.611C150.705 146.356 152.042 145.143 153.42 143.976L153.421 95.9473H118.053V116.254ZM257.316 143.754C258.765 144.971 260.17 146.239 261.529 147.554L292.685 116.4V95.9473H257.316V143.754ZM155.631 142.169C169.351 131.35 186.672 124.895 205.5 124.895C224.208 124.895 241.427 131.269 255.105 141.963V95.9473H155.632L155.631 142.169ZM294.896 114.189L313.138 95.9473H294.896V114.189ZM115.842 114.043V95.9473H97.7451L115.842 114.043Z" fill="#211D1D"/>
</g>
<defs>
<clipPath id="clip0_321_63">
<rect width="411" height="411" fill="white"/>
</clipPath>
</defs>
</svg>
