<svg width="411" height="411" viewBox="0 0 411 411" fill="none" xmlns="http://www.w3.org/2000/svg">
<g clip-path="url(#clip0_321_63)">
<path opacity="0.2" d="M95.9473 93.7363H115.842V-292H118.053V93.7363H153.421V-292H155.632V93.7363H255.105V-292H257.316V93.7363H292.685V-292H294.896V93.7363H314.789V-292H317V92.085L555.735 -146.65L557.299 -145.087L318.476 93.7363H702.737V95.9473H317V314.789H702.737V317H318.799L557.84 556.041L556.276 557.604L317 318.328V702.737H314.789V317H294.896V702.737H292.685V317H257.316V702.737H255.105V317H155.632V702.737H153.421V317H118.053V702.737H115.842V317H95.9473V702.737H93.7363V318.476L-146.087 558.299L-147.65 556.735L92.085 317H-292V314.789H93.7363V95.9473H-292V93.7363H92.4072L-147.109 -145.78L-145.546 -147.344L93.7363 91.9375V-292H95.9473V93.7363ZM97.4229 314.789H115.842V296.369L97.4229 314.789ZM118.053 294.159V314.789H153.421L153.42 269.621C151.434 268.006 149.524 266.302 147.697 264.513L118.053 294.159ZM155.632 314.789H255.105V271.557C241.292 281.946 224.116 288.105 205.5 288.105C186.766 288.105 169.489 281.868 155.631 271.357L155.632 314.789ZM263.242 264.57C261.353 266.418 259.376 268.175 257.316 269.836V314.789H292.685V294.013L263.242 264.57ZM294.896 314.789H313.461L294.896 296.224V314.789ZM95.9473 313.138L115.842 293.243V117.17L95.9473 97.2754V313.138ZM294.896 117.316V293.097L314.789 312.99V97.4229L294.896 117.316ZM118.053 291.032L146.14 262.944C131.75 248.078 122.895 227.824 122.895 205.5C122.895 183.027 131.868 162.65 146.428 147.757L118.053 119.381V291.032ZM264.513 147.697C279.107 162.595 288.105 182.997 288.105 205.5C288.105 227.853 279.225 248.131 264.802 263.003L292.685 290.886V119.527L264.513 147.697ZM155.631 256.58V268.561C169.336 279.413 186.661 285.895 205.5 285.895C224.218 285.895 241.442 279.497 255.105 268.77V256.434L205.441 206.77L155.631 256.58ZM257.316 266.97C258.819 265.702 260.274 264.38 261.679 263.007L257.316 258.645V266.97ZM149.262 262.949C150.603 264.262 151.99 265.528 153.42 266.745V258.791L149.262 262.949ZM257.316 154.895V255.518L263.238 261.439C277.262 246.968 285.895 227.243 285.895 205.5C285.895 183.608 277.143 163.76 262.949 149.262L257.316 154.895ZM147.991 149.32C133.831 163.813 125.105 183.638 125.105 205.5C125.105 227.213 133.714 246.914 147.703 261.38L153.42 255.664V154.749L147.991 149.32ZM155.631 253.453L203.878 205.206L155.631 156.96V253.453ZM207.005 205.206L255.105 253.307V157.105L207.005 205.206ZM205.5 125.105C186.661 125.105 169.336 131.586 155.631 142.438V153.833L205.441 203.643L255.105 153.979V142.229C241.442 131.502 224.218 125.105 205.5 125.105ZM257.316 151.768L261.38 147.703C260.067 146.434 258.713 145.208 257.316 144.029V151.768ZM153.42 144.254C152.095 145.381 150.807 146.551 149.559 147.761L153.42 151.622V144.254ZM118.053 116.254L147.995 146.197C149.731 144.513 151.542 142.905 153.42 141.378L153.421 95.9473H118.053V116.254ZM257.316 141.163C259.268 142.736 261.144 144.398 262.943 146.14L292.685 116.4V95.9473H257.316V141.163ZM155.631 139.642C169.489 129.132 186.766 122.895 205.5 122.895C224.115 122.895 241.292 129.053 255.105 139.442V95.9473H155.632L155.631 139.642ZM294.896 114.189L313.138 95.9473H294.896V114.189ZM115.842 114.043V95.9473H97.7451L115.842 114.043Z" fill="#211D1D"/>
</g>
<defs>
<clipPath id="clip0_321_63">
<rect width="411" height="411" fill="white"/>
</clipPath>
</defs>
</svg>
